<?xml version="1.0" standalone="no"?>
<!DOCTYPE svg PUBLIC "-//W3C//DTD SVG 20010904//EN"
 "http://www.w3.org/TR/2001/REC-SVG-20010904/DTD/svg10.dtd">
<svg version="1.0" xmlns="http://www.w3.org/2000/svg"
 width="1232.000000pt" height="1280.000000pt" viewBox="0 0 1232.000000 1280.000000"
 preserveAspectRatio="xMidYMid meet">
<metadata>
Created by potrace 1.15, written by Peter Selinger 2001-2017
</metadata>
<g transform="translate(0.000000,1280.000000) scale(0.100000,-0.100000)"
fill="#000000" stroke="none">
<path d="M8940 12787 c-73 -28 -251 -122 -284 -149 -46 -38 -184 -258 -212
-338 -52 -149 -69 -380 -40 -545 22 -124 44 -216 63 -258 20 -46 120 -123 215
-166 74 -33 88 -47 57 -56 -11 -4 -42 -25 -68 -48 -27 -23 -97 -82 -156 -131
-151 -125 -223 -214 -291 -355 -31 -64 -67 -149 -80 -189 -41 -122 -59 -369
-33 -464 6 -22 14 -66 19 -97 5 -31 19 -87 30 -126 12 -38 29 -92 37 -120 33
-109 82 -196 145 -262 201 -206 214 -218 269 -237 30 -10 88 -36 129 -56 41
-20 100 -45 130 -55 30 -10 82 -33 115 -51 95 -52 370 -115 590 -135 158 -15
283 -5 430 33 134 34 183 56 270 120 33 24 82 56 109 72 71 41 196 165 257
254 29 42 69 95 90 118 20 23 46 62 58 88 11 26 32 61 45 77 13 15 27 42 31
58 5 22 15 32 48 45 63 24 114 71 143 133 40 83 42 129 9 191 -36 69 -31 111
30 272 42 111 48 136 52 226 6 121 -23 287 -61 344 -12 19 -31 52 -40 72 -10
21 -48 66 -85 101 -70 65 -100 80 -201 92 -34 5 -74 19 -105 38 -43 27 -56 42
-92 117 -91 183 -221 303 -463 428 -192 99 -260 126 -400 158 -96 22 -127 24
-366 24 -289 0 -331 6 -396 60 -50 41 -88 121 -88 184 0 91 28 164 84 222 60
61 102 74 159 50 58 -24 76 -99 36 -150 -24 -31 -54 -34 -68 -7 -17 30 -75 11
-128 -42 l-44 -44 26 -32 c35 -40 198 -121 245 -121 78 1 153 59 192 150 25
56 47 176 48 252 0 51 -4 63 -36 105 -48 65 -105 108 -172 134 -72 27 -203 35
-252 16z m136 -108 c62 -16 55 -29 -16 -29 -55 0 -63 -3 -111 -42 -55 -45
-111 -119 -154 -203 -22 -44 -25 -63 -25 -149 0 -141 17 -187 93 -253 91 -80
112 -85 437 -89 295 -3 292 -3 515 -70 114 -34 378 -177 460 -249 123 -107
235 -273 235 -346 0 -23 11 -31 104 -72 76 -35 116 -47 151 -47 45 0 51 -3
109 -63 74 -76 116 -156 150 -294 31 -123 33 -189 5 -279 -38 -125 -75 -191
-123 -219 -23 -14 -53 -25 -65 -25 -33 0 -71 -23 -119 -73 -47 -48 -53 -80
-15 -85 16 -2 26 5 37 26 24 46 63 72 107 72 34 0 43 -6 79 -51 46 -58 49 -80
20 -164 -33 -97 -35 -98 -175 -91 -143 8 -171 -2 -99 -33 26 -12 59 -24 73
-28 68 -16 67 -52 -2 -135 -29 -35 -68 -85 -87 -113 -43 -64 -171 -192 -326
-327 -113 -98 -128 -108 -230 -147 -157 -61 -234 -71 -456 -61 -165 8 -199 13
-343 50 -198 51 -248 66 -305 96 -25 13 -119 60 -210 103 -161 77 -167 81
-261 175 -129 127 -218 260 -238 356 -6 25 -24 90 -41 145 -28 90 -31 114 -33
245 -1 80 3 202 9 272 l11 127 63 118 c34 65 78 141 97 170 47 71 130 145 216
193 64 35 73 37 91 24 11 -8 35 -14 54 -14 18 0 42 -5 54 -11 30 -16 67 -3 74
28 8 32 -4 54 -41 72 l-29 14 23 19 c35 28 67 32 143 18 65 -11 72 -11 97 8
19 14 26 29 27 53 0 19 1 39 2 45 1 6 27 27 57 47 l56 36 36 -21 c76 -45 198
-18 288 64 63 57 121 133 130 169 3 14 1 38 -5 53 l-10 28 -39 -58 c-57 -90
-134 -152 -213 -175 -25 -7 -29 -5 -34 19 -19 84 -26 102 -40 102 -29 0 -80
-29 -125 -72 -50 -47 -175 -117 -264 -148 l-57 -20 -77 32 c-132 55 -220 118
-250 182 -11 23 -32 98 -46 167 -30 152 -34 335 -9 457 18 92 75 212 144 305
46 62 59 71 158 121 92 47 115 55 165 55 32 1 78 -4 103 -10z m209 -202 c14
-22 13 -33 -5 -122 -11 -54 -22 -100 -24 -103 -8 -8 -86 -14 -101 -8 -14 5
-10 14 23 51 29 34 45 65 63 125 12 44 24 80 26 80 1 0 9 -11 18 -23z"/>
<path d="M9781 11634 c-40 -33 -40 -60 1 -82 51 -28 68 -49 68 -87 0 -53 -50
-102 -115 -114 -34 -6 -57 -18 -72 -36 -38 -44 -31 -55 36 -55 56 0 64 3 123
48 135 104 162 267 55 332 -42 26 -59 25 -96 -6z"/>
<path d="M10095 11398 c-2 -7 -5 -45 -7 -84 -3 -61 -8 -77 -33 -109 -17 -20
-34 -43 -39 -50 -7 -9 -4 -27 9 -54 15 -34 25 -43 59 -52 73 -20 146 1 146 42
0 14 -7 19 -28 19 -34 0 -68 22 -75 50 -3 12 5 40 19 66 27 50 34 150 12 172
-16 16 -58 15 -63 0z"/>
<path d="M9767 11040 c-32 -10 -67 -26 -78 -36 -26 -24 -24 -60 5 -79 22 -14
28 -14 75 5 69 27 78 26 86 -12 13 -61 56 -86 89 -52 30 30 11 121 -36 171
-26 28 -62 29 -141 3z"/>
<path d="M10296 10975 c-37 -34 -33 -53 17 -75 52 -24 117 -25 182 -1 48 17
89 60 72 77 -4 4 -34 0 -67 -9 -78 -22 -83 -22 -118 8 -37 31 -52 31 -86 0z"/>
<path d="M10765 10868 c-34 -26 -58 -30 -193 -32 -99 -1 -121 -8 -122 -37 0
-18 39 -52 63 -54 16 -2 43 -15 61 -29 31 -23 35 -33 56 -140 17 -87 20 -122
12 -144 -13 -37 1 -62 33 -62 46 0 65 32 65 108 0 58 -25 209 -44 270 -6 17 3
25 56 52 78 40 88 48 88 71 0 26 -40 25 -75 -3z"/>
<path d="M8457 10728 c-14 -24 -27 -61 -31 -84 -5 -37 -3 -42 20 -52 22 -10
28 -9 47 12 46 50 97 115 97 123 0 12 -65 43 -90 43 -12 0 -28 -16 -43 -42z"/>
<path d="M9579 10509 c-26 -26 -69 -117 -69 -146 0 -27 33 -47 66 -39 16 4 30
20 40 44 9 20 26 56 37 79 21 41 21 42 2 62 -23 27 -49 27 -76 0z"/>
<path d="M8627 10462 c-20 -21 -37 -44 -37 -52 -1 -24 -69 -110 -102 -128 -51
-28 -73 -49 -93 -85 -18 -33 -18 -38 -3 -74 9 -21 21 -52 28 -70 16 -43 185
-213 211 -213 12 0 34 9 50 21 23 16 29 28 29 58 0 35 3 39 30 45 29 5 80 49
80 67 0 13 -32 27 -81 34 -42 6 -49 4 -81 -24 l-35 -30 -26 27 c-50 52 -71
137 -46 185 6 12 47 58 90 103 85 88 102 123 74 154 -26 29 -46 25 -88 -18z"/>
<path d="M10838 10080 c-37 -15 -53 -17 -77 -9 -34 12 -64 0 -81 -31 -9 -17
-7 -20 15 -26 14 -3 38 -4 53 -1 146 31 168 41 156 70 -8 21 -8 21 -66 -3z"/>
<path d="M8888 9479 c-10 -5 -18 -16 -18 -23 0 -27 78 -83 175 -126 99 -45
101 -45 202 -43 115 2 168 19 182 57 6 13 15 27 20 31 21 12 10 30 -31 53 -24
12 -47 22 -52 22 -5 0 -29 -16 -53 -36 -51 -42 -114 -58 -172 -45 -20 4 -80
33 -133 64 -53 32 -98 57 -100 57 -1 0 -11 -5 -20 -11z"/>
<path d="M3500 11539 c-474 -48 -653 -62 -910 -69 -162 -5 -324 -14 -360 -20
-36 -5 -112 -14 -169 -20 -57 -6 -147 -19 -200 -31 -130 -28 -319 -59 -358
-59 -19 0 -43 10 -63 26 -42 36 -72 34 -121 -11 -38 -34 -44 -36 -87 -30 -40
5 -51 2 -73 -17 -15 -13 -30 -35 -33 -50 -9 -39 20 -52 100 -43 61 6 63 6 69
-18 4 -14 2 -42 -4 -63 -13 -48 -14 -226 -1 -359 6 -55 17 -171 25 -258 11
-118 23 -180 45 -249 17 -50 30 -109 30 -132 0 -22 13 -115 30 -206 16 -91 52
-347 80 -570 51 -415 65 -496 106 -632 15 -52 27 -128 34 -226 6 -81 16 -165
22 -187 6 -22 11 -56 12 -75 1 -19 24 -117 50 -218 27 -104 46 -195 43 -210
-3 -15 -23 -79 -45 -142 -48 -137 -122 -524 -122 -637 0 -85 -68 -428 -98
-494 -11 -24 -27 -72 -36 -106 -9 -35 -65 -228 -125 -430 -60 -203 -132 -448
-160 -546 -28 -97 -71 -231 -96 -297 -25 -66 -65 -202 -89 -302 -25 -101 -65
-266 -90 -368 -25 -102 -66 -264 -91 -360 -26 -96 -73 -278 -105 -405 -32
-126 -95 -367 -139 -535 -45 -168 -104 -411 -132 -540 -27 -129 -59 -270 -70
-314 -28 -111 -105 -494 -129 -639 -10 -67 -40 -221 -65 -342 -25 -121 -61
-308 -79 -417 -26 -153 -40 -211 -65 -263 -34 -73 -37 -92 -20 -129 14 -30 34
-39 58 -26 33 17 147 -27 209 -81 41 -36 63 -36 103 -1 40 36 49 99 25 180
l-17 57 40 141 c22 77 50 199 61 270 12 71 33 170 46 221 13 50 37 157 54 238
53 258 120 522 195 760 24 77 62 205 85 285 22 80 88 290 146 468 129 396 141
409 118 137 -22 -261 -42 -544 -59 -810 -9 -137 -18 -257 -22 -265 -11 -28
-20 -1171 -14 -1768 3 -278 5 -313 20 -320 9 -5 66 -4 128 1 104 10 115 9 164
-11 64 -27 81 -27 105 -1 29 32 43 250 32 524 -10 264 -1 2037 11 2250 5 83
15 238 21 345 14 239 16 257 37 264 9 4 71 11 137 16 67 6 137 15 156 20 19 6
78 13 130 16 52 3 134 14 181 25 48 10 106 19 129 19 24 0 105 20 181 45 101
33 164 47 241 55 76 7 140 21 243 55 76 25 147 45 156 45 21 0 56 -87 70 -175
14 -81 52 -214 100 -340 26 -69 44 -141 55 -212 35 -251 76 -409 149 -573 22
-50 41 -116 54 -195 12 -66 25 -136 31 -155 5 -19 10 -52 10 -72 0 -20 11 -70
25 -110 45 -130 48 -142 61 -213 6 -38 20 -106 29 -150 10 -44 19 -125 21
-180 6 -177 6 -178 34 -192 36 -18 63 -16 165 12 49 14 137 36 194 50 117 27
151 45 151 78 0 32 -29 327 -36 362 -3 17 -23 95 -45 175 -26 99 -47 209 -64
346 -14 110 -38 266 -54 345 -16 79 -32 171 -36 204 -7 70 -31 268 -50 410 -8
55 -36 179 -64 275 -56 197 -103 381 -99 385 2 2 32 11 68 20 69 18 229 31
555 44 142 6 213 13 243 24 23 9 138 28 255 42 262 32 263 32 287 58 30 32 25
96 -18 222 l-37 110 -144 3 c-83 1 -150 7 -157 13 -9 7 -13 36 -13 82 0 82 -4
107 -61 347 -23 96 -54 236 -70 310 -16 74 -41 184 -55 243 -14 59 -36 186
-50 283 -14 96 -43 251 -65 344 -43 185 -73 343 -90 490 -13 108 -20 138 -83
380 -26 96 -55 229 -66 295 -21 127 -31 170 -79 355 -41 158 -83 437 -89 600
-4 104 -13 169 -40 285 -19 83 -39 173 -45 200 -6 28 -11 158 -12 290 l-1 240
-34 68 c-21 43 -36 92 -41 130 -4 34 -17 103 -29 152 -13 50 -28 110 -34 135
-6 25 -13 73 -15 108 l-4 62 94 0 c51 -1 122 -7 158 -15 87 -19 244 -19 355 1
92 16 151 16 415 -5 163 -13 213 -31 267 -99 23 -29 47 -45 84 -57 49 -17 51
-19 45 -47 -12 -62 47 -124 114 -119 32 2 54 -10 174 -91 75 -51 156 -106 180
-121 59 -38 248 -94 380 -112 61 -8 184 -15 275 -15 374 0 985 -88 1083 -157
21 -14 77 -36 125 -50 48 -13 105 -35 128 -49 23 -13 64 -27 91 -30 63 -8 192
-64 199 -86 3 -9 29 -31 58 -49 50 -30 52 -31 105 -19 29 6 56 18 59 27 8 21
-92 121 -147 146 -25 11 -62 31 -83 44 -20 13 -67 30 -105 38 -89 19 -280 84
-382 130 -60 27 -119 44 -214 60 -72 13 -151 28 -176 34 -25 6 -110 18 -189
26 -80 9 -149 19 -153 21 -5 3 -147 10 -316 15 -311 9 -358 14 -491 58 -31 10
-78 32 -105 50 -28 17 -59 31 -69 31 -11 0 -36 13 -56 29 -20 15 -51 36 -68
45 -34 17 -167 104 -241 157 -24 17 -47 40 -51 52 -4 11 -39 41 -76 66 -38 25
-82 63 -99 84 -26 32 -28 39 -15 51 11 11 28 12 74 6 33 -5 81 -12 107 -15 26
-3 62 -16 81 -29 18 -13 44 -26 58 -29 31 -8 109 -82 131 -125 14 -26 39 -43
123 -84 119 -58 82 -52 505 -82 124 -8 288 -20 365 -26 77 -6 187 -10 245 -10
58 0 150 -5 205 -11 55 -5 156 -12 225 -13 69 -2 170 -11 225 -19 55 -9 165
-19 245 -23 269 -13 487 -36 558 -58 29 -9 72 17 72 43 0 25 -24 43 -79 59
-113 31 -291 51 -506 56 -82 2 -199 11 -260 20 -69 11 -151 17 -220 15 -60 -2
-157 3 -215 10 -64 8 -142 11 -200 8 -61 -4 -134 -1 -205 8 -60 9 -204 22
-320 29 -115 8 -279 27 -364 41 -146 26 -157 29 -221 71 -68 46 -87 69 -92
114 -2 18 -12 27 -33 33 -16 5 -70 29 -120 53 -49 25 -99 44 -110 44 -33 0
-42 13 -41 59 1 43 0 44 -53 72 -29 15 -74 45 -100 67 -75 63 -130 85 -194 80
-75 -6 -87 -18 -87 -87 l0 -57 -59 -13 c-32 -7 -73 -10 -89 -6 -17 3 -96 -1
-177 -10 -80 -9 -161 -13 -181 -9 -19 3 -178 9 -352 13 l-317 6 -6 111 c-3 61
-9 115 -12 121 -4 6 -11 65 -17 131 -6 66 -17 146 -25 177 -8 31 -15 73 -15
95 0 21 -9 60 -21 87 -15 34 -25 90 -34 193 -12 132 -17 154 -54 244 -42 100
-71 197 -71 235 0 14 6 21 19 21 53 0 123 75 108 114 -9 22 -101 66 -134 64
-15 0 -62 -4 -103 -9z m-225 -116 c-18 -49 -17 -71 4 -78 12 -3 33 0 48 9 88
48 88 48 115 37 23 -9 31 -25 63 -128 20 -65 56 -177 81 -249 39 -116 44 -141
44 -221 0 -115 15 -195 45 -239 29 -43 43 -104 55 -253 6 -64 15 -134 20 -156
5 -22 10 -73 10 -114 l0 -74 -52 6 c-49 6 -53 5 -85 -29 -38 -41 -41 -68 -12
-104 11 -14 31 -42 45 -63 19 -28 35 -40 70 -49 50 -14 64 -34 64 -90 0 -17
18 -105 39 -197 70 -296 76 -337 57 -365 -15 -24 -13 -56 4 -56 27 0 55 -204
45 -328 -4 -55 -2 -103 5 -132 6 -25 18 -79 25 -120 8 -41 26 -124 40 -185 17
-74 25 -139 25 -200 0 -134 54 -495 99 -665 42 -157 74 -298 91 -400 17 -103
29 -155 76 -312 28 -97 53 -214 74 -350 33 -212 51 -314 94 -513 14 -66 42
-221 62 -344 19 -122 47 -260 60 -305 14 -44 36 -148 50 -231 14 -82 40 -211
59 -285 39 -156 55 -256 55 -335 0 -49 -4 -60 -28 -85 -44 -44 -92 -52 -224
-40 -62 6 -143 8 -180 5 l-68 -7 0 37 0 38 -85 -5 c-47 -3 -91 -11 -99 -17
-23 -20 -224 -71 -279 -71 -47 -1 -122 -23 -252 -73 -22 -9 -70 -16 -106 -17
-70 0 -423 -62 -489 -85 -61 -22 -296 -58 -326 -51 -49 13 -79 56 -112 161
-47 150 -81 315 -97 468 -16 154 -30 246 -51 327 -17 69 -44 249 -44 294 0 19
9 45 21 60 24 31 19 53 -15 66 -14 5 -28 20 -30 32 -3 13 -22 93 -42 178 -20
85 -42 214 -50 285 -7 72 -24 189 -38 260 -48 262 -81 514 -70 544 7 16 7 37
2 50 -4 13 -4 30 2 41 18 34 11 55 -24 74 -27 14 -35 26 -42 59 -4 23 -6 59
-5 79 2 24 -4 46 -18 65 -17 22 -25 62 -39 192 -14 118 -23 167 -34 175 -11 8
-12 15 -5 28 8 12 4 63 -16 190 -14 95 -33 233 -42 306 -9 74 -37 213 -61 310
-31 120 -48 214 -55 292 -13 162 -26 254 -49 330 -33 114 -50 198 -65 334 -8
73 -21 175 -30 227 -8 52 -22 159 -30 239 -20 188 -48 384 -86 593 -38 213
-59 381 -59 476 0 55 -4 79 -17 93 -15 17 -15 19 0 36 22 25 21 37 -4 54 -20
13 -20 16 -8 39 9 17 13 69 14 184 l0 160 85 13 c47 7 168 29 270 48 339 62
534 83 793 85 61 0 243 13 402 28 160 16 296 29 304 30 9 1 11 -5 6 -16z
m2003 -1506 c23 -25 20 -37 -9 -37 -17 0 -29 19 -29 46 0 20 13 17 38 -9z
m-260 -69 c2 -9 -7 -27 -19 -39 -21 -21 -26 -22 -138 -13 -64 5 -168 7 -231 5
-219 -8 -446 -5 -553 6 -104 11 -127 16 -115 29 3 3 163 7 354 9 192 3 369 9
394 14 25 5 103 8 175 7 113 -1 130 -3 133 -18z m-3189 -2333 c61 -365 71
-461 66 -623 -4 -119 -11 -182 -30 -262 -34 -143 -49 -267 -41 -334 4 -41 2
-62 -8 -79 -8 -12 -19 -62 -24 -112 -6 -49 -17 -133 -26 -185 -8 -52 -34 -232
-57 -400 -33 -250 -45 -313 -65 -352 -26 -51 -30 -78 -14 -94 20 -20 15 -178
-13 -359 -15 -99 -30 -186 -32 -194 -3 -7 -12 -126 -21 -265 -8 -138 -21 -307
-27 -374 l-12 -124 -62 -1 c-112 -3 -134 -51 -93 -207 11 -41 20 -87 20 -101
0 -31 25 -56 60 -61 l25 -3 -2 -120 c-1 -66 -10 -196 -19 -290 -11 -118 -15
-257 -14 -455 0 -157 -2 -512 -6 -790 -8 -594 -9 -814 -3 -1200 5 -329 5 -330
-76 -370 -61 -30 -222 -46 -241 -23 -18 21 -26 550 -19 1287 6 654 8 697 40
1101 19 231 44 554 55 718 27 394 31 422 69 461 34 36 39 70 15 104 -13 18
-19 21 -30 11 -8 -6 -17 -9 -20 -7 -3 3 0 50 6 104 22 188 42 369 44 409 2 22
6 47 9 55 3 8 8 51 11 95 3 44 11 109 17 145 6 36 12 90 14 120 4 63 24 202
55 370 11 63 25 187 30 276 12 201 18 247 85 629 29 171 64 373 77 449 21 127
26 143 55 179 38 45 36 38 22 74 -19 49 -21 161 -3 188 10 15 19 64 25 132 5
59 16 151 25 203 18 109 80 386 90 401 13 21 23 -9 43 -126z m-383 -1427 c-41
-204 -98 -598 -111 -758 -8 -107 -26 -280 -40 -385 -14 -104 -32 -255 -40
-335 -8 -80 -24 -221 -35 -315 -21 -174 -40 -343 -60 -543 -11 -118 -46 -249
-116 -437 -20 -55 -45 -125 -56 -155 -36 -103 -189 -614 -239 -800 -28 -102
-68 -248 -90 -325 -49 -177 -124 -501 -195 -845 -51 -248 -102 -456 -124 -507
-6 -15 -18 -23 -34 -23 -13 0 -38 -11 -55 -25 l-30 -26 -50 26 -51 25 0 64 c0
36 16 140 35 233 19 92 51 260 70 373 59 340 153 839 179 945 13 55 41 183 61
284 20 101 66 292 101 425 36 132 103 392 150 576 46 184 104 403 129 485 24
83 85 319 135 525 51 208 122 468 160 585 38 116 116 370 174 565 58 195 110
365 116 378 14 33 23 27 16 -10z m777 -1000 c10 -8 21 -37 27 -73 14 -82 13
-87 -8 -81 -10 4 -72 -5 -138 -18 -162 -33 -229 -40 -319 -31 l-77 7 4 83 c2
51 8 89 16 97 9 9 57 15 150 18 291 11 328 10 345 -2z m2845 -851 c29 -23 73
-128 70 -165 l-3 -36 -145 -23 c-80 -12 -183 -27 -230 -33 -47 -6 -108 -18
-136 -26 -34 -9 -101 -14 -200 -14 -82 0 -192 -7 -244 -15 -52 -8 -122 -15
-155 -15 -66 -1 -86 -5 -220 -44 -79 -24 -110 -27 -260 -30 -93 -2 -186 -8
-205 -14 -19 -6 -92 -16 -161 -21 -101 -9 -152 -19 -252 -50 -68 -22 -164 -47
-213 -56 -49 -9 -124 -27 -166 -40 -42 -14 -125 -32 -185 -40 -146 -20 -307
-51 -427 -81 -103 -27 -293 -53 -382 -54 -62 0 -77 14 -93 88 -19 89 -20 87
57 88 43 0 97 10 150 27 46 15 100 27 121 27 20 0 71 9 112 20 41 11 133 24
204 30 86 6 156 17 207 33 l77 24 22 -23 c30 -32 65 -30 141 5 35 17 108 39
163 50 55 11 131 30 170 41 38 11 99 20 134 20 45 0 73 6 95 19 18 11 67 24
116 30 47 6 146 20 220 31 74 10 197 23 273 29 102 7 145 14 164 27 20 13 60
19 158 25 71 4 165 13 208 20 62 10 87 10 126 0 30 -7 76 -10 122 -6 50 4 91
2 126 -8 48 -13 56 -12 125 11 90 29 147 73 157 122 5 28 13 36 36 42 37 8
105 -1 123 -15z m-1349 -499 c5 -18 24 -91 40 -163 16 -71 43 -170 59 -220 59
-180 72 -229 72 -281 0 -29 7 -86 16 -126 8 -40 21 -129 28 -198 8 -69 30
-213 49 -320 20 -107 43 -260 52 -340 9 -80 27 -192 40 -250 14 -58 40 -180
59 -273 33 -158 34 -170 21 -215 -24 -80 -48 -94 -163 -100 l-99 -5 -38 48
c-37 44 -39 52 -40 114 -1 49 -7 75 -23 101 -12 19 -22 46 -22 60 0 40 -38
195 -80 325 -21 66 -45 164 -54 217 -25 149 -69 311 -120 442 -46 117 -58 167
-96 403 -11 68 -40 185 -64 260 -61 186 -136 506 -123 519 2 3 85 9 183 15 99
5 184 12 189 14 6 2 31 4 57 4 44 1 47 -1 57 -31z"/>
<path d="M3090 9940 c-30 -11 -110 -47 -177 -81 -129 -64 -175 -103 -230 -197
-28 -48 -119 -285 -133 -349 -6 -23 -21 -162 -35 -309 -28 -303 -25 -356 26
-501 40 -113 114 -287 146 -341 14 -24 38 -75 53 -113 30 -73 67 -130 137
-217 61 -76 59 -93 -31 -232 -123 -190 -189 -416 -213 -733 -7 -86 63 -351
141 -537 l62 -145 3 -194 c1 -107 7 -205 12 -218 13 -35 11 -105 -8 -298 -24
-242 -23 -248 27 -348 37 -75 59 -102 184 -226 121 -120 147 -141 173 -141 38
0 45 19 26 82 -12 41 -27 59 -112 132 -96 83 -154 155 -181 226 -7 19 -17 39
-22 44 -4 6 -5 114 -1 241 l6 231 -24 10 -24 11 23 12 c27 15 29 53 5 128 -16
50 -16 55 0 88 9 19 20 35 25 35 5 0 23 -20 42 -45 24 -33 54 -55 105 -80 39
-20 109 -67 155 -105 47 -39 91 -70 98 -70 24 0 82 66 82 93 0 36 9 39 70 19
36 -11 60 -27 77 -49 26 -34 64 -43 101 -24 9 5 25 12 35 15 10 3 23 20 29 37
10 28 14 30 42 25 37 -7 68 -41 64 -69 -5 -30 -45 -55 -120 -73 -78 -19 -122
-13 -226 31 -60 25 -65 25 -82 10 -10 -9 -23 -30 -29 -46 -9 -27 -8 -31 17
-40 15 -6 68 -20 117 -30 101 -22 167 -18 227 12 21 11 47 19 59 19 28 0 125
56 133 76 3 9 6 31 6 50 0 30 3 34 25 34 69 0 150 73 184 165 27 71 27 115 -1
150 -20 26 -24 27 -80 21 -72 -9 -77 0 -53 86 23 83 32 349 16 455 -20 129
-78 385 -101 445 -11 31 -34 73 -50 93 -17 21 -30 44 -30 52 0 16 -169 258
-247 355 -29 36 -66 74 -81 83 -15 10 -51 43 -80 74 -52 55 -53 55 -80 40 -31
-17 -39 -49 -22 -89 11 -27 111 -123 152 -146 11 -6 73 -82 139 -170 170 -227
250 -400 274 -589 4 -27 13 -84 20 -125 34 -183 27 -268 -14 -168 -11 29 -33
93 -47 142 -30 104 -63 175 -109 231 -50 61 -75 107 -75 136 0 15 -7 30 -16
33 -24 9 -54 -12 -54 -38 0 -46 41 -156 75 -200 48 -63 58 -85 105 -236 23
-74 55 -168 71 -208 30 -75 36 -133 20 -189 -7 -22 -5 -48 4 -84 9 -35 12 -79
8 -135 -7 -94 2 -107 58 -84 30 13 51 43 63 92 12 51 45 96 66 91 25 -7 25
-25 0 -106 -24 -76 -51 -114 -96 -133 -48 -20 -73 -17 -117 13 -37 26 -44 27
-170 28 -125 0 -135 2 -191 29 -64 31 -247 200 -295 271 -15 22 -47 88 -70
148 -28 69 -48 107 -58 107 -11 0 -13 5 -7 18 9 21 9 17 -4 265 -9 167 -8 207
4 250 8 29 17 72 21 96 5 38 4 43 -13 39 -13 -2 -27 -30 -52 -108 -34 -104
-41 -173 -45 -405 -2 -80 14 -209 28 -225 15 -18 105 -217 105 -232 0 -6 54
-66 120 -134 66 -68 120 -131 120 -139 0 -36 -34 -24 -148 51 -187 126 -249
204 -261 329 -5 52 -9 60 -28 63 -13 2 -30 13 -38 25 -26 37 -81 193 -131 367
-46 164 -47 165 -35 245 6 44 13 112 17 150 4 39 15 97 25 130 10 33 19 72 19
88 0 26 100 231 142 289 11 16 33 32 49 35 19 4 29 12 29 24 0 10 29 48 64 84
63 65 64 65 119 65 37 0 80 9 124 26 200 77 220 95 303 257 l52 102 -5 270
c-5 284 -28 520 -63 620 -9 28 -40 97 -69 155 -29 58 -62 135 -73 172 -29 94
-54 138 -104 185 -240 225 -239 225 -259 207 -43 -38 -30 -59 153 -250 71 -74
117 -146 118 -184 0 -8 32 -83 70 -166 107 -230 140 -411 140 -756 0 -234 -9
-291 -58 -382 -44 -81 -182 -171 -281 -183 -69 -8 -93 1 -151 52 l-51 45 -48
-25 -49 -24 -30 47 c-106 166 -281 587 -312 754 -12 61 12 434 36 553 18 91
65 245 101 325 23 52 82 120 105 120 6 0 26 13 44 30 19 16 63 38 99 49 35 11
78 27 94 36 47 24 108 19 175 -15 65 -32 73 -31 120 19 29 30 29 31 10 52 -52
59 -200 84 -294 49z"/>
<path d="M10367 9137 c-25 -26 -28 -34 -20 -61 8 -30 11 -31 93 -42 109 -15
186 -40 230 -74 20 -15 53 -36 75 -48 23 -11 87 -57 144 -101 57 -45 107 -81
112 -81 4 0 37 -26 71 -58 35 -32 91 -77 124 -101 63 -43 223 -215 281 -302
111 -164 299 -501 327 -584 10 -27 41 -111 71 -185 81 -204 125 -338 125 -379
0 -20 11 -75 24 -121 14 -47 30 -116 36 -155 6 -38 16 -86 21 -106 13 -51 11
-133 -6 -306 -13 -131 -28 -224 -75 -463 -20 -104 -70 -465 -70 -506 0 -23
-11 -85 -25 -138 -14 -53 -30 -151 -36 -218 -5 -67 -17 -152 -25 -188 -35
-160 -37 -182 -25 -259 22 -126 53 -191 91 -191 10 0 31 -7 46 -15 17 -9 56
-15 93 -15 62 0 64 -1 102 -42 44 -49 47 -65 19 -127 -19 -40 -19 -46 -5 -67
8 -13 15 -25 15 -27 0 -2 -32 -19 -70 -36 -79 -37 -91 -36 -200 7 -89 35 -101
44 -142 105 -33 47 -38 66 -62 212 -14 88 -25 188 -25 222 1 34 -2 66 -5 71
-14 22 -38 329 -42 528 -2 116 -8 242 -14 280 -5 38 -10 118 -10 178 0 110
-18 297 -45 462 -8 49 -15 124 -15 165 0 72 -25 194 -87 427 -14 51 -27 111
-30 131 -3 21 -26 78 -52 127 -50 94 -51 95 -118 80 l-33 -8 25 54 c27 59 38
107 56 253 22 171 17 217 -28 321 -22 51 -56 114 -74 140 -49 71 -193 218
-251 255 -47 30 -203 100 -318 141 -73 26 -289 40 -408 27 -48 -6 -137 -16
-197 -22 -87 -10 -117 -17 -143 -35 -21 -16 -57 -27 -104 -34 -40 -5 -81 -14
-90 -19 -24 -13 -31 -8 -74 56 -46 70 -110 127 -226 203 -51 34 -102 67 -112
75 -18 13 -18 16 22 83 56 94 54 125 -8 102 -38 -14 -66 -45 -89 -99 -12 -27
-28 -49 -36 -49 -8 0 -54 14 -103 31 -48 17 -116 36 -152 43 -77 14 -80 22
-54 108 21 71 12 88 -35 69 -45 -19 -62 -45 -75 -108 -9 -44 -16 -58 -29 -57
-91 4 -84 1 -102 52 -9 26 -19 82 -22 125 -6 73 -7 77 -30 77 -13 0 -41 -9
-63 -20 -36 -18 -39 -23 -34 -53 3 -17 14 -60 25 -94 14 -44 17 -68 10 -80 -5
-11 -49 -31 -113 -52 -56 -18 -119 -42 -139 -52 -57 -28 -207 -202 -313 -362
-92 -137 -100 -154 -141 -286 -24 -77 -53 -188 -65 -246 -20 -104 -20 -113 -5
-289 18 -204 21 -223 69 -431 57 -248 104 -363 228 -557 40 -62 90 -153 111
-203 41 -91 263 -446 350 -559 26 -33 64 -87 85 -120 20 -32 61 -91 90 -130
54 -74 58 -85 42 -116 -8 -15 -4 -19 34 -29 44 -11 71 -29 152 -102 29 -25 55
-39 85 -44 24 -3 74 -13 111 -22 50 -11 101 -14 205 -10 131 4 145 7 273 49
222 74 315 128 530 304 183 150 534 551 631 722 24 42 70 114 102 159 99 139
217 378 320 643 24 63 48 114 53 114 4 -1 16 -17 26 -35 10 -19 22 -41 28 -49
52 -79 130 -287 130 -351 0 -15 12 -69 26 -120 18 -64 29 -132 33 -214 4 -66
15 -145 24 -175 20 -68 50 -407 42 -475 -4 -30 -1 -83 8 -130 11 -56 14 -114
10 -194 -9 -183 25 -639 63 -854 30 -171 45 -214 99 -298 47 -73 53 -76 195
-114 97 -26 165 -32 174 -16 3 5 29 16 57 26 69 22 205 141 187 162 -7 9 -24
13 -45 11 -18 -2 -33 -2 -33 -1 0 2 9 21 20 43 33 65 27 96 -27 147 -27 25
-92 72 -146 105 -109 68 -153 107 -173 155 -19 45 -17 77 10 163 13 41 29 117
35 169 7 51 18 108 25 126 9 20 12 50 9 73 -3 22 2 76 11 121 9 45 23 140 30
210 8 71 16 133 20 139 3 5 12 64 21 132 8 68 33 213 54 324 46 234 75 481 68
581 -2 39 -30 185 -61 325 -43 192 -67 276 -96 340 -21 47 -61 157 -89 244
-37 114 -66 182 -101 242 -28 45 -57 98 -65 118 -8 19 -47 84 -87 145 -40 60
-99 149 -130 198 -62 96 -252 304 -301 330 -28 14 -118 87 -259 210 -32 28
-80 64 -106 79 -26 14 -67 43 -92 64 -56 46 -75 55 -125 65 -22 4 -67 22 -100
40 -50 28 -148 58 -173 54 -4 -1 -20 -15 -35 -32z m-1555 -577 c80 -9 271 -65
408 -120 86 -34 245 -143 280 -192 49 -67 92 -148 87 -161 -2 -7 -34 -27 -70
-45 -36 -18 -69 -36 -72 -41 -3 -5 -1 -21 5 -35 13 -36 42 -34 131 12 99 50
127 70 143 100 19 37 213 103 386 132 111 19 155 22 255 17 138 -7 196 -21
315 -71 155 -66 204 -95 289 -171 113 -100 190 -211 232 -335 31 -93 31 -95
19 -185 -31 -242 -51 -312 -160 -560 -22 -49 -49 -115 -60 -145 -12 -30 -31
-71 -43 -90 -12 -19 -36 -66 -53 -105 -17 -39 -76 -142 -132 -229 -56 -88
-102 -163 -102 -168 0 -25 -193 -277 -310 -404 -230 -250 -264 -286 -268 -275
-2 6 2 18 9 27 10 12 8 20 -13 42 -13 15 -32 40 -42 56 -21 33 -17 38 51 75
46 25 48 28 53 76 6 54 8 60 54 120 64 84 103 118 187 160 47 24 112 67 143
96 84 76 172 189 174 222 1 15 7 37 13 49 21 40 49 159 49 211 0 37 -7 68 -23
98 -13 24 -27 58 -31 74 -8 33 -33 65 -50 65 -7 0 -47 22 -91 50 -109 69 -129
74 -257 66 -67 -4 -108 -3 -108 3 0 23 80 139 149 214 40 45 91 106 113 135
27 37 48 55 69 59 31 6 59 36 59 63 0 9 -14 29 -31 46 -17 16 -49 62 -72 102
l-41 72 -51 0 c-38 0 -56 5 -69 19 -15 17 -15 21 15 77 29 55 31 65 27 136 -6
107 -32 130 -99 91 -22 -13 -29 -23 -25 -38 17 -59 18 -152 3 -187 -14 -33
-14 -40 -1 -52 24 -24 16 -29 -35 -22 -45 6 -51 4 -70 -20 -12 -15 -21 -33
-21 -41 0 -22 -29 -74 -75 -133 -23 -30 -46 -68 -50 -85 -9 -38 -156 -287
-172 -293 -18 -5 -17 59 2 84 21 28 18 77 -9 168 -14 45 -30 99 -35 121 -6 22
-38 90 -71 151 l-60 112 -142 70 c-93 46 -170 77 -221 88 -71 16 -83 17 -142
2 -77 -18 -81 -12 -39 60 27 46 53 135 54 185 0 15 -9 56 -21 90 -50 151 -121
208 -269 215 -147 7 -186 5 -233 -16 -55 -24 -133 -94 -152 -136 -8 -17 -24
-42 -35 -56 -12 -14 -23 -47 -26 -77 -6 -46 -3 -56 22 -91 42 -58 132 -122
172 -122 43 0 78 35 87 86 8 42 46 134 56 134 4 0 18 -9 33 -21 47 -37 34 -71
-68 -176 -28 -29 -59 -53 -69 -53 -24 0 -70 -55 -78 -94 -4 -17 -13 -45 -20
-63 -11 -26 -11 -54 0 -155 7 -68 18 -132 24 -143 6 -11 13 -33 17 -50 5 -27
10 -30 50 -33 56 -4 72 -18 37 -31 -53 -20 -95 -91 -96 -161 -1 -40 32 -120
50 -120 8 0 9 -20 4 -69 l-7 -68 62 -67 c49 -52 72 -69 106 -77 24 -6 44 -15
44 -20 0 -5 -3 -9 -7 -9 -5 0 -36 -4 -70 -9 -74 -11 -261 -100 -305 -145 -16
-17 -63 -64 -104 -105 -41 -41 -91 -101 -111 -133 -20 -32 -39 -58 -42 -58 -4
0 -22 28 -40 62 -37 66 -37 66 18 97 10 6 11 13 2 29 -6 11 -11 47 -11 79 0
32 -4 64 -9 72 -5 7 -42 20 -82 27 -75 14 -119 44 -119 80 0 17 70 19 150 4
30 -6 61 -8 70 -5 27 9 54 68 46 101 -4 16 -10 41 -13 55 -3 16 17 96 55 215
34 104 73 227 87 274 14 47 56 147 92 222 74 155 74 168 -1 168 -22 0 -66 1
-96 2 -30 0 -93 -1 -140 -3 -64 -3 -101 1 -148 15 l-63 20 -40 -41 -41 -40 17
-39 c24 -56 29 -309 10 -479 -8 -71 -16 -178 -17 -237 -2 -60 -6 -108 -9 -108
-13 0 -40 83 -71 214 -55 231 -54 465 2 708 27 114 40 148 92 241 71 127 158
252 235 337 57 63 115 98 228 139 62 23 82 21 126 -11 13 -9 22 -7 45 9 47 33
88 38 216 23z m-35 -223 c13 -13 11 -15 -14 -21 -76 -19 -133 -87 -133 -159 0
-53 -22 -64 -54 -27 -14 18 -26 39 -26 48 1 72 55 157 113 178 35 13 92 3 114
-19z m198 -48 c24 -22 49 -55 54 -72 24 -70 12 -148 -29 -192 -10 -11 -26 -40
-35 -65 -9 -25 -23 -61 -30 -80 -7 -19 -24 -47 -38 -61 -40 -42 -118 -89 -146
-89 -20 0 -32 -10 -50 -42 -21 -37 -25 -40 -32 -23 -12 30 -10 76 6 119 9 27
46 69 124 142 60 58 123 121 139 142 29 36 29 38 19 101 -9 55 -16 70 -49 101
-46 45 -48 60 -8 60 22 0 43 -12 75 -41z m320 -495 c33 -8 101 -35 151 -59 77
-38 97 -53 132 -101 23 -31 42 -63 42 -71 0 -8 11 -28 25 -45 14 -16 25 -33
25 -38 0 -9 -35 -20 -68 -20 -12 0 -42 -10 -65 -22 -23 -12 -73 -33 -112 -48
-55 -20 -72 -31 -79 -52 -12 -34 6 -58 42 -58 14 0 72 25 128 55 l103 55 47
-12 c65 -18 78 -41 69 -125 -4 -36 -15 -85 -25 -107 -10 -23 -26 -63 -36 -91
-18 -51 -24 -58 -117 -138 -96 -82 -245 -147 -336 -147 -20 0 -31 7 -39 25
-12 26 -48 34 -68 16 -5 -6 -54 9 -124 37 -102 41 -122 53 -177 108 -79 78
-81 98 -15 159 l47 44 0 117 c0 110 -1 117 -22 132 -28 18 -29 39 -3 47 28 9
25 30 -15 114 -20 41 -34 80 -31 86 2 7 18 15 34 18 17 4 63 34 102 68 l71 61
37 -18 c36 -17 37 -17 82 9 50 29 80 29 195 1z m-945 -90 c17 -4 34 -12 36
-19 3 -7 -20 -77 -51 -155 -30 -78 -60 -162 -65 -186 -6 -24 -35 -120 -66
-214 -55 -167 -73 -200 -112 -200 -7 0 -20 17 -29 38 -13 32 -15 76 -8 337 7
316 13 371 41 392 19 14 195 18 254 7z m2037 -186 c72 -55 82 -92 35 -135 -17
-16 -40 -45 -52 -67 -11 -21 -39 -59 -60 -85 -51 -60 -248 -312 -333 -426 -66
-88 -106 -137 -158 -195 -31 -34 -104 -59 -121 -42 -25 25 -12 98 37 208 58
131 75 160 198 341 53 78 114 177 137 220 69 131 127 217 152 225 52 16 105 2
165 -44z m-733 -715 c-48 -87 -85 -142 -117 -172 -53 -49 -44 -124 16 -135 19
-4 46 -15 59 -25 25 -20 141 -46 158 -36 6 4 17 22 25 41 14 34 110 144 126
144 5 0 9 -19 9 -43 0 -63 26 -142 60 -181 16 -18 34 -44 39 -58 15 -39 90
-72 152 -66 42 4 57 12 90 44 22 21 42 50 45 64 3 14 10 35 16 47 15 30 -4 94
-43 150 -16 23 -29 46 -29 52 0 7 22 11 54 11 47 0 57 -4 75 -26 26 -33 29
-137 6 -181 -8 -15 -17 -44 -20 -63 -4 -24 -22 -53 -59 -92 -51 -56 -54 -58
-104 -57 -92 3 -172 -62 -206 -167 -9 -28 -32 -75 -51 -105 -19 -30 -35 -61
-35 -69 0 -8 -7 -28 -16 -45 -47 -85 -46 -80 -28 -124 20 -51 15 -65 -34 -90
-21 -11 -46 -30 -54 -43 -22 -34 -49 -121 -40 -127 5 -3 26 -19 47 -36 30 -23
52 -31 99 -35 l61 -5 -55 -29 c-30 -16 -80 -43 -110 -62 -62 -37 -299 -108
-418 -125 -141 -20 -371 31 -432 96 l-21 22 43 23 c24 13 68 36 98 51 62 32
179 131 235 198 20 25 50 72 67 105 17 33 41 76 53 95 13 20 29 65 35 101 6
36 20 92 31 124 21 63 19 98 -8 129 -21 22 -50 22 -91 -3 l-33 -20 7 -74 c10
-111 -31 -275 -79 -314 -8 -7 -20 -31 -26 -55 -22 -76 -71 -130 -157 -173 -42
-22 -83 -49 -91 -61 -17 -25 -81 -53 -122 -53 -23 0 -31 6 -40 30 -5 17 -14
30 -20 30 -26 0 -76 61 -116 140 -24 48 -56 101 -71 119 l-27 33 55 -7 c45 -6
62 -3 94 13 22 11 69 26 104 32 109 21 224 89 205 120 -14 22 -101 6 -158 -30
-50 -31 -55 -32 -134 -28 -75 4 -87 8 -135 41 -30 20 -69 52 -88 72 l-34 35
-22 -27 c-19 -24 -24 -26 -39 -13 -9 7 -27 34 -40 59 -13 25 -33 52 -44 58
-11 7 -30 35 -42 63 -12 27 -27 55 -35 61 -26 21 -8 136 31 193 13 18 26 49
30 67 12 54 42 87 108 121 34 17 80 44 103 60 29 21 76 37 165 58 139 33 203
37 256 15 19 -8 45 -15 57 -15 12 0 59 -22 106 -50 94 -55 105 -57 139 -34 22
16 23 21 17 80 l-6 62 57 12 c32 7 70 19 85 26 15 8 38 14 51 14 13 0 34 11
47 25 13 14 32 25 42 25 10 0 21 7 24 15 7 17 51 44 72 45 9 0 1 -24 -24 -67z
m781 37 c72 -32 108 -80 118 -159 6 -47 18 -61 55 -61 19 0 22 -5 22 -39 0
-74 -22 -195 -42 -235 -21 -42 -114 -146 -130 -146 -6 0 -29 -17 -53 -38 -24
-21 -69 -51 -102 -66 -95 -47 -116 -68 -182 -191 -34 -63 -67 -117 -73 -121
-5 -4 -19 3 -30 14 -20 19 -20 20 15 93 20 41 38 85 42 99 3 14 25 44 48 66
34 34 51 42 90 47 33 3 57 13 75 30 15 13 41 32 59 41 53 27 172 221 188 307
9 49 -12 157 -38 192 -57 76 -73 87 -129 89 -88 3 -104 0 -162 -34 -45 -27
-59 -41 -73 -77 l-17 -44 46 -90 c26 -50 45 -95 42 -99 -18 -29 -107 15 -128
64 -22 50 -39 143 -33 170 4 14 37 56 74 95 114 118 203 144 318 93z"/>
<path d="M9801 7904 c-17 -14 -31 -31 -31 -36 0 -6 18 -43 40 -81 23 -39 49
-94 59 -124 30 -90 76 -118 121 -73 18 18 18 22 5 61 -8 23 -15 53 -15 66 0
14 -11 38 -24 53 -13 16 -26 46 -30 68 -4 28 -16 48 -37 66 -38 32 -50 32 -88
0z"/>
<path d="M10645 7784 c-140 -62 -175 -122 -87 -149 18 -5 37 2 77 29 30 20 73
40 95 45 50 11 80 36 80 67 0 26 -26 44 -62 44 -13 0 -59 -17 -103 -36z"/>
<path d="M10646 7401 c-24 -24 -26 -32 -17 -50 8 -13 22 -21 39 -21 15 0 51
-11 81 -25 62 -29 82 -26 112 16 21 29 21 31 3 51 -28 31 -93 58 -145 58 -37
0 -50 -5 -73 -29z"/>
<path d="M10495 7154 c-35 -38 -32 -68 9 -99 48 -37 98 -43 125 -16 26 26 27
57 1 71 -11 6 -20 20 -20 31 0 12 -10 23 -26 29 -41 16 -63 12 -89 -16z"/>
<path d="M8967 7680 c-26 -16 -47 -33 -47 -37 0 -5 13 -19 30 -33 21 -17 46
-61 78 -135 58 -136 85 -175 118 -175 26 0 64 32 64 53 0 7 -8 23 -17 37 -28
40 -93 180 -93 201 0 28 -24 70 -54 97 -14 12 -27 22 -29 22 -2 0 -24 -13 -50
-30z"/>
<path d="M8981 7263 c-45 -53 -51 -83 -21 -113 28 -28 62 -34 104 -16 82 34
75 176 -9 176 -28 0 -41 -8 -74 -47z"/>
<path d="M9233 7188 c-49 -50 -56 -90 -23 -126 26 -27 38 -27 95 0 53 26 61
46 49 115 -9 46 -11 48 -44 51 -30 2 -41 -3 -77 -40z"/>
<path d="M8882 7029 c-5 -30 -9 -54 -9 -55 117 -76 131 -83 194 -90 55 -5 74
-3 126 18 53 20 62 28 62 48 0 24 -3 25 -52 22 -95 -5 -187 35 -205 89 -2 5
-26 12 -54 15 l-51 6 -11 -53z"/>
<path d="M9397 6485 c-8 -8 -24 -30 -36 -48 -18 -30 -19 -40 -11 -93 6 -32 10
-80 10 -106 0 -38 6 -54 28 -78 l27 -31 89 13 89 12 18 41 c21 45 24 99 9 154
-5 20 -12 48 -15 63 -6 34 -58 71 -96 70 -16 0 -31 4 -34 9 -9 14 -62 11 -78
-6z"/>
<path d="M8525 6318 c-11 -6 -26 -18 -32 -26 -17 -21 -16 -77 1 -91 24 -20 77
-31 97 -20 25 13 61 86 54 108 -11 35 -79 52 -120 29z"/>
<path d="M9068 6176 c-8 -7 -20 -32 -27 -54 -12 -36 -12 -44 2 -66 16 -24 19
-24 59 -12 48 13 72 46 63 86 -11 49 -68 76 -97 46z"/>
<path d="M11205 6760 c-17 -19 -17 -25 -1 -136 9 -64 21 -124 26 -134 14 -26
12 -81 -4 -175 -19 -103 -37 -474 -30 -590 5 -64 2 -112 -10 -167 -9 -42 -16
-108 -16 -145 0 -38 -7 -93 -15 -123 -39 -139 -82 -418 -96 -612 -7 -101 -19
-184 -35 -245 -18 -67 -23 -105 -19 -140 5 -31 1 -72 -10 -118 -34 -139 -46
-802 -18 -1018 14 -111 14 -150 4 -280 -7 -84 -16 -258 -21 -387 -11 -275 -32
-483 -60 -594 -11 -43 -20 -87 -20 -97 0 -25 -75 -279 -105 -356 -14 -35 -27
-82 -31 -105 -3 -24 -17 -71 -30 -105 -13 -34 -24 -71 -24 -82 0 -12 -1 -22
-2 -22 -9 -4 -300 -21 -385 -22 -117 -2 -129 4 -144 73 -5 23 -20 56 -34 74
-28 37 -89 214 -143 421 -22 83 -52 184 -65 225 -54 161 -119 371 -157 505
-21 77 -71 230 -111 340 -62 173 -73 213 -80 297 -4 53 -19 144 -33 203 -18
74 -26 134 -26 196 0 50 -5 121 -11 160 -11 62 -10 79 11 165 23 94 23 97 5
110 -24 18 -39 18 -73 0 -46 -24 -73 -61 -79 -108 -3 -24 -36 -104 -76 -183
-110 -222 -231 -510 -389 -930 -33 -88 -80 -203 -104 -256 -24 -54 -53 -128
-64 -166 -12 -37 -41 -124 -66 -193 -26 -69 -65 -186 -89 -260 -23 -74 -61
-183 -84 -242 -22 -59 -41 -113 -41 -120 0 -22 -30 -58 -49 -58 -9 0 -22 -5
-28 -11 -19 -19 -145 -58 -208 -64 -69 -7 -356 8 -374 20 -21 13 8 25 60 25
64 0 94 26 108 91 16 74 14 105 -9 120 -23 17 -32 92 -55 464 -18 285 -40 542
-60 680 -10 67 -14 182 -14 350 0 181 -4 278 -15 352 -18 116 -20 266 -6 428
9 110 20 829 22 1465 1 233 5 367 16 440 8 58 18 141 22 185 5 44 16 105 25
135 8 30 20 86 25 125 6 38 17 79 25 92 20 30 19 46 -6 69 -20 18 -21 18 -57
-3 -32 -18 -38 -27 -44 -69 -20 -146 -31 -205 -49 -264 -12 -40 -24 -118 -30
-205 -14 -205 -32 -573 -31 -625 1 -25 1 -79 1 -120 -1 -109 0 -182 6 -395 3
-104 1 -343 -6 -530 -17 -473 -17 -714 0 -805 9 -52 13 -151 13 -323 -1 -222
2 -264 24 -395 14 -81 29 -214 34 -297 4 -82 16 -283 25 -445 19 -308 16 -402
-13 -425 -9 -7 -47 -38 -83 -68 -45 -38 -95 -67 -157 -93 -51 -21 -92 -40 -92
-44 0 -6 182 -15 510 -26 58 -2 164 2 237 8 93 7 144 8 174 0 23 -6 47 -8 55
-5 7 2 20 30 29 61 34 124 97 316 110 336 7 12 38 102 70 200 31 98 66 200 77
225 11 25 35 97 54 159 19 62 59 170 90 240 30 70 79 192 108 272 29 80 76
190 105 246 33 62 58 127 67 170 9 45 37 114 80 198 36 72 74 153 85 181 10
28 29 62 42 75 l22 24 12 -49 c6 -28 12 -95 12 -151 1 -63 8 -129 21 -180 11
-43 31 -145 45 -226 19 -115 38 -185 86 -315 82 -226 177 -461 199 -498 26
-42 127 -331 156 -443 31 -122 63 -368 74 -561 10 -191 9 -190 110 -167 45 10
118 16 194 16 226 0 504 19 554 36 27 10 95 20 157 23 l110 6 -75 45 c-71 42
-79 45 -148 45 l-73 0 7 40 c14 89 66 307 98 410 84 272 95 339 120 775 47
817 43 701 26 860 -9 80 -11 207 -6 420 5 299 11 367 56 660 11 74 25 182 30
240 23 253 29 311 34 328 3 9 15 82 26 162 12 80 33 190 47 245 24 90 27 127
34 360 4 143 12 400 17 570 11 345 11 514 -1 533 -13 20 -81 15 -102 -8z"/>
</g>
</svg>
